<?xml version="1.0" standalone="no"?><!DOCTYPE svg PUBLIC "-//W3C//DTD SVG 1.1//EN" "http://www.w3.org/Graphics/SVG/1.1/DTD/svg11.dtd"><svg t="1625639948084" class="icon" viewBox="0 0 1024 1024" version="1.1" xmlns="http://www.w3.org/2000/svg" p-id="7789" xmlns:xlink="http://www.w3.org/1999/xlink" width="64" height="64"><defs><style type="text/css"></style></defs><path d="M938.666667 768h-42.666667v-341.333333c0-185.472-131.456-340.138667-306.218667-376.106667A85.205333 85.205333 0 0 0 512 0c-34.730667 0-64.469333 20.821333-77.781333 50.56C259.413333 86.528 128 241.237333 128 426.666667v341.333333H85.333333a42.666667 42.666667 0 0 0 0 85.333333h853.333334a42.666667 42.666667 0 0 0 0-85.333333zM213.333333 768v-341.333333a298.666667 298.666667 0 0 1 298.666667-298.666667 298.666667 298.666667 0 0 1 298.666667 298.666667v341.333333H213.333333zM576 896h-128a42.666667 42.666667 0 0 0 0 85.333333h128a42.666667 42.666667 0 0 0 0-85.333333z" p-id="7790"></path></svg>